<svg id="Capa_1" enable-background="new 0 0 512.003 512.003" height="512" viewBox="0 0 512.003 512.003" width="512" xmlns="http://www.w3.org/2000/svg" xmlns:xlink="http://www.w3.org/1999/xlink"><linearGradient id="SVGID_1_" gradientUnits="userSpaceOnUse" x1="256.002" x2="256.002" y1="406.002" y2="16.002"><stop offset="0" stop-color="#fd3a84"/><stop offset="1" stop-color="#ffa68d"/></linearGradient><linearGradient id="SVGID_2_" gradientUnits="userSpaceOnUse" x1="312.853" x2="312.853" y1="496.002" y2="166.002"><stop offset="0" stop-color="#ffc2cc"/><stop offset="1" stop-color="#fff2f4"/></linearGradient><g><g><g><path d="m497 376.002h-318.293l-5-30h267.879c22.09 0 40.758-15.814 44.388-37.602l25.822-154.932c1.52-9.125-5.517-17.466-14.796-17.466h-358.293l-9.555-57.33c-6.052-36.313-37.165-62.67-73.979-62.67h-40.173c-8.284 0-15 6.716-15 15s6.716 15 15 15h40.172c22.089 0 40.756 15.814 44.388 37.602l51.644 309.864c1.206 7.233 7.463 12.534 14.796 12.534h331c8.284 0 15-6.716 15-15s-6.716-15-15-15z" fill="url(#SVGID_1_)"/></g></g><g><g><path d="m226 406.002c-24.813 0-45 20.187-45 45s20.187 45 45 45 45-20.187 45-45-20.187-45-45-45zm211 0c-24.813 0-45 20.187-45 45s20.187 45 45 45 45-20.187 45-45-20.187-45-45-45zm-159.698-90h78.396l2.5-30h-83.396zm-5-60h88.396l2.5-30h-93.396zm206.991-90h-80.991l-2.5 30h78.491zm-10 60h-75.991l-2.5 30h73.491zm-12.911 77.466 2.911-17.467h-70.991l-2.5 30h55.784c7.363.001 13.586-5.27 14.796-12.533zm-189.08-107.466h98.396l2.5-30h-103.396zm-32.604-30h-90.991l5 30h88.491zm5 60h-85.991l5 30h83.491zm5 60h-80.991l5 30h78.491z" fill="url(#SVGID_2_)"/></g></g></g></svg>